<svg width="210" height="36" viewBox="0 0 210 36" fill="none" xmlns="http://www.w3.org/2000/svg">
<path d="M58.7727 14.2188C58.6335 13.7348 58.438 13.3073 58.1861 12.9361C57.9342 12.5582 57.6259 12.2401 57.2614 11.9815C56.9034 11.7164 56.4924 11.5142 56.0284 11.375C55.571 11.2358 55.0639 11.1662 54.5071 11.1662C53.4664 11.1662 52.5516 11.4247 51.7628 11.9418C50.9806 12.4588 50.3707 13.2112 49.9332 14.1989C49.4957 15.1799 49.277 16.3797 49.277 17.7983C49.277 19.2169 49.4924 20.4233 49.9233 21.4176C50.3542 22.4119 50.964 23.1709 51.7528 23.6946C52.5417 24.2116 53.473 24.4702 54.5469 24.4702C55.5213 24.4702 56.3532 24.2978 57.0426 23.9531C57.7386 23.6018 58.2689 23.108 58.6335 22.4716C59.0047 21.8352 59.1903 21.0829 59.1903 20.2145L60.0653 20.3438H54.8153V17.1023H63.3366V19.6676C63.3366 21.4574 62.9588 22.9953 62.2031 24.2812C61.4474 25.5606 60.4067 26.5483 59.081 27.2443C57.7552 27.9337 56.2372 28.2784 54.527 28.2784C52.6179 28.2784 50.9408 27.8575 49.4957 27.0156C48.0507 26.1671 46.9238 24.964 46.1151 23.4062C45.313 21.8419 44.9119 19.9858 44.9119 17.8381C44.9119 16.1875 45.1506 14.7159 45.6278 13.4233C46.1117 12.1241 46.7879 11.0237 47.6562 10.1222C48.5246 9.22064 49.5355 8.53456 50.6889 8.06392C51.8423 7.59328 53.0919 7.35795 54.4375 7.35795C55.5909 7.35795 56.6648 7.52699 57.6591 7.86506C58.6534 8.1965 59.535 8.66714 60.304 9.27699C61.0795 9.88684 61.7126 10.6127 62.2031 11.4545C62.6937 12.2898 63.0085 13.2112 63.1477 14.2188H58.7727ZM73.3917 28.2983C71.8472 28.2983 70.5115 27.9702 69.3846 27.3139C68.2643 26.651 67.3993 25.7296 66.7894 24.5497C66.1796 23.3632 65.8746 21.9877 65.8746 20.4233C65.8746 18.8456 66.1796 17.4669 66.7894 16.2869C67.3993 15.1004 68.2643 14.179 69.3846 13.5227C70.5115 12.8598 71.8472 12.5284 73.3917 12.5284C74.9362 12.5284 76.2686 12.8598 77.3888 13.5227C78.5157 14.179 79.3841 15.1004 79.994 16.2869C80.6038 17.4669 80.9087 18.8456 80.9087 20.4233C80.9087 21.9877 80.6038 23.3632 79.994 24.5497C79.3841 25.7296 78.5157 26.651 77.3888 27.3139C76.2686 27.9702 74.9362 28.2983 73.3917 28.2983ZM73.4116 25.017C74.1142 25.017 74.7009 24.8182 75.1715 24.4205C75.6422 24.0161 75.9968 23.4659 76.2354 22.7699C76.4807 22.0739 76.6033 21.2817 76.6033 20.3935C76.6033 19.5052 76.4807 18.7131 76.2354 18.017C75.9968 17.321 75.6422 16.7708 75.1715 16.3665C74.7009 15.9621 74.1142 15.7599 73.4116 15.7599C72.7023 15.7599 72.1057 15.9621 71.6218 16.3665C71.1445 16.7708 70.7833 17.321 70.538 18.017C70.2994 18.7131 70.18 19.5052 70.18 20.3935C70.18 21.2817 70.2994 22.0739 70.538 22.7699C70.7833 23.4659 71.1445 24.0161 71.6218 24.4205C72.1057 24.8182 72.7023 25.017 73.4116 25.017ZM86.9045 28L81.0778 7.63636H85.7809L89.1516 21.7855H89.3207L93.0394 7.63636H97.0664L100.775 21.8153H100.954L104.325 7.63636H109.028L103.201 28H99.0053L95.1275 14.6861H94.9684L91.1005 28H86.9045ZM111.253 28V12.7273H115.489V28H111.253ZM113.381 10.7585C112.751 10.7585 112.211 10.5497 111.76 10.1321C111.316 9.70786 111.094 9.20076 111.094 8.61079C111.094 8.02746 111.316 7.52699 111.76 7.10938C112.211 6.68513 112.751 6.47301 113.381 6.47301C114.01 6.47301 114.547 6.68513 114.991 7.10938C115.442 7.52699 115.668 8.02746 115.668 8.61079C115.668 9.20076 115.442 9.70786 114.991 10.1321C114.547 10.5497 114.01 10.7585 113.381 10.7585ZM127.005 12.7273V15.9091H117.808V12.7273H127.005ZM119.896 9.06818H124.132V23.3068C124.132 23.6979 124.191 24.0028 124.311 24.2216C124.43 24.4337 124.596 24.5829 124.808 24.669C125.027 24.7552 125.279 24.7983 125.564 24.7983C125.762 24.7983 125.961 24.7817 126.16 24.7486C126.359 24.7088 126.511 24.679 126.618 24.6591L127.284 27.8111C127.072 27.8774 126.773 27.9536 126.389 28.0398C126.004 28.1326 125.537 28.1889 124.987 28.2088C123.966 28.2486 123.071 28.1127 122.302 27.8011C121.54 27.4896 120.947 27.0057 120.522 26.3494C120.098 25.6932 119.889 24.8646 119.896 23.8636V9.06818ZM134.328 19.1705V28H130.093V7.63636H134.209V15.4219H134.388C134.733 14.5204 135.29 13.8144 136.059 13.304C136.828 12.7869 137.792 12.5284 138.952 12.5284C140.013 12.5284 140.937 12.7604 141.726 13.2244C142.522 13.6818 143.138 14.3414 143.576 15.2031C144.02 16.0582 144.239 17.0824 144.232 18.2756V28H139.996V19.0312C140.003 18.09 139.764 17.3575 139.28 16.8338C138.803 16.3101 138.133 16.0483 137.272 16.0483C136.695 16.0483 136.185 16.1709 135.74 16.4162C135.303 16.6615 134.958 17.0194 134.706 17.4901C134.461 17.9541 134.335 18.5142 134.328 19.1705ZM147.645 7.63636H152.955L158.562 21.3182H158.801L164.409 7.63636H169.719V28H165.543V14.7457H165.374L160.104 27.9006H157.26L151.99 14.696H151.821V28H147.645V7.63636ZM173.266 28V7.63636H181.3C182.838 7.63636 184.15 7.91146 185.238 8.46165C186.331 9.00521 187.163 9.77746 187.733 10.7784C188.31 11.7727 188.598 12.9427 188.598 14.2884C188.598 15.6406 188.307 16.804 187.723 17.7784C187.14 18.7462 186.295 19.4886 185.188 20.0057C184.087 20.5227 182.755 20.7812 181.191 20.7812H175.811V17.321H180.495C181.317 17.321 181.999 17.2083 182.543 16.983C183.087 16.7576 183.491 16.4195 183.756 15.9688C184.028 15.518 184.164 14.9579 184.164 14.2884C184.164 13.6122 184.028 13.0421 183.756 12.5781C183.491 12.1141 183.083 11.7628 182.533 11.5241C181.989 11.2789 181.303 11.1562 180.475 11.1562H177.571V28H173.266ZM184.263 18.733L189.324 28H184.571L179.62 18.733H184.263ZM190.865 11.1861V7.63636H207.59V11.1861H201.355V28H197.1V11.1861H190.865Z" fill="white"/>
<path d="M0.5 9.42105C0.5 4.77023 4.27023 1 8.92105 1H24.0789C28.7298 1 32.5 4.77023 32.5 9.42105V24.5789C32.5 29.2298 28.7298 33 24.0789 33H8.92105C4.27023 33 0.5 29.2298 0.5 24.5789V9.42105Z" fill="#3C50E0"/>
<g filter="url(#filter0_d_989_8545)">
<path d="M8.92188 9.42152C8.92188 8.49135 9.67592 7.7373 10.6061 7.7373C11.5362 7.7373 12.2903 8.49135 12.2903 9.42152V24.5794C12.2903 25.5096 11.5362 26.2636 10.6061 26.2636C9.67592 26.2636 8.92188 25.5096 8.92188 24.5794V9.42152Z" fill="white"/>
</g>
<g opacity="0.9" filter="url(#filter1_d_989_8545)">
<path d="M15.2383 16.1578C15.2383 15.2277 15.9923 14.4736 16.9225 14.4736C17.8527 14.4736 18.6067 15.2277 18.6067 16.1578V24.5789C18.6067 25.5091 17.8527 26.2631 16.9225 26.2631C15.9923 26.2631 15.2383 25.5091 15.2383 24.5789V16.1578Z" fill="white"/>
</g>
<g opacity="0.7" filter="url(#filter2_d_989_8545)">
<path d="M21.5527 11.9474C21.5527 11.0172 22.3068 10.2632 23.2369 10.2632C24.1671 10.2632 24.9212 11.0172 24.9212 11.9474V24.579C24.9212 25.5091 24.1671 26.2632 23.2369 26.2632C22.3068 26.2632 21.5527 25.5091 21.5527 24.579V11.9474Z" fill="white"/>
</g>
<defs>
<filter id="filter0_d_989_8545" x="7.92188" y="7.2373" width="5.36914" height="20.5264" filterUnits="userSpaceOnUse" color-interpolation-filters="sRGB">
<feFlood flood-opacity="0" result="BackgroundImageFix"/>
<feColorMatrix in="SourceAlpha" type="matrix" values="0 0 0 0 0 0 0 0 0 0 0 0 0 0 0 0 0 0 127 0" result="hardAlpha"/>
<feOffset dy="0.5"/>
<feGaussianBlur stdDeviation="0.5"/>
<feComposite in2="hardAlpha" operator="out"/>
<feColorMatrix type="matrix" values="0 0 0 0 0 0 0 0 0 0 0 0 0 0 0 0 0 0 0.12 0"/>
<feBlend mode="normal" in2="BackgroundImageFix" result="effect1_dropShadow_989_8545"/>
<feBlend mode="normal" in="SourceGraphic" in2="effect1_dropShadow_989_8545" result="shape"/>
</filter>
<filter id="filter1_d_989_8545" x="14.2383" y="13.9736" width="5.36914" height="13.7896" filterUnits="userSpaceOnUse" color-interpolation-filters="sRGB">
<feFlood flood-opacity="0" result="BackgroundImageFix"/>
<feColorMatrix in="SourceAlpha" type="matrix" values="0 0 0 0 0 0 0 0 0 0 0 0 0 0 0 0 0 0 127 0" result="hardAlpha"/>
<feOffset dy="0.5"/>
<feGaussianBlur stdDeviation="0.5"/>
<feComposite in2="hardAlpha" operator="out"/>
<feColorMatrix type="matrix" values="0 0 0 0 0 0 0 0 0 0 0 0 0 0 0 0 0 0 0.12 0"/>
<feBlend mode="normal" in2="BackgroundImageFix" result="effect1_dropShadow_989_8545"/>
<feBlend mode="normal" in="SourceGraphic" in2="effect1_dropShadow_989_8545" result="shape"/>
</filter>
<filter id="filter2_d_989_8545" x="20.5527" y="9.76318" width="5.36914" height="18" filterUnits="userSpaceOnUse" color-interpolation-filters="sRGB">
<feFlood flood-opacity="0" result="BackgroundImageFix"/>
<feColorMatrix in="SourceAlpha" type="matrix" values="0 0 0 0 0 0 0 0 0 0 0 0 0 0 0 0 0 0 127 0" result="hardAlpha"/>
<feOffset dy="0.5"/>
<feGaussianBlur stdDeviation="0.5"/>
<feComposite in2="hardAlpha" operator="out"/>
<feColorMatrix type="matrix" values="0 0 0 0 0 0 0 0 0 0 0 0 0 0 0 0 0 0 0.12 0"/>
<feBlend mode="normal" in2="BackgroundImageFix" result="effect1_dropShadow_989_8545"/>
<feBlend mode="normal" in="SourceGraphic" in2="effect1_dropShadow_989_8545" result="shape"/>
</filter>
</defs>
</svg>
